<?xml version="1.0" encoding="UTF-8"?>
<!DOCTYPE svg PUBLIC "-//W3C//DTD SVG 1.1//EN" "http://www.w3.org/Graphics/SVG/1.1/DTD/svg11.dtd">
<!-- Creator: CorelDRAW 2018 (64-Bit) -->
<svg xmlns="http://www.w3.org/2000/svg" xml:space="preserve" width="860px" height="303px" version="1.1" style="shape-rendering:geometricPrecision; text-rendering:geometricPrecision; image-rendering:optimizeQuality; fill-rule:evenodd; clip-rule:evenodd"
viewBox="0 0 354.02 124.83"
 xmlns:xlink="http://www.w3.org/1999/xlink">
 <defs>
  <style type="text/css">
   <![CDATA[
    .fil6 {fill:#F7B82B}
    .fil4 {fill:#EF8F45}
    .fil3 {fill:#ED8256}
    .fil5 {fill:#D4505E}
    .fil7 {fill:#A34162}
    .fil2 {fill:#803660}
    .fil1 {fill:#2F1B34}
    .fil0 {fill:#562B72}
    .fil8 {fill:#803660;fill-rule:nonzero}
   ]]>
  </style>
 </defs>
 <g id="Слой_x0020_1">
  <metadata id="CorelCorpID_0Corel-Layer"/>
  <g id="_2428460565680">
   <g>
    <path class="fil0" d="M52.5 10.68l-26.96 3.89c0.42,2.91 -0.49,5.99 -2.74,8.23 -2.24,2.25 -5.32,3.16 -8.23,2.74l-3.89 26.95 12.03 -21.74 39.71 31.67 -31.67 -39.71 21.75 -12.03z"/>
    <path class="fil0" d="M10.14 10.14c-3.21,3.21 -3.21,8.41 0,11.62 3.21,3.21 8.41,3.21 11.62,0 3.21,-3.21 3.21,-8.41 0,-11.62 -3.21,-3.21 -8.41,-3.21 -11.62,0z"/>
    <path class="fil1" d="M18.84 57.11l3.86 -20.84 -11.44 19.18c1.9,1.42 3.13,3.68 3.13,6.23 0,2.55 -1.23,4.81 -3.13,6.23l10.98 19.65 -3.4 -21.31 43.58 -3.83 -43.58 -5.31z"/>
    <path class="fil1" d="M6.6 55.08c-3.65,0 -6.6,2.95 -6.6,6.6 0,3.65 2.95,6.6 6.6,6.6 3.65,0 6.6,-2.95 6.6,-6.6 0,-3.65 -2.95,-6.6 -6.6,-6.6z"/>
    <path class="fil2" d="M61.68 14.39c-2.55,0 -4.81,-1.23 -6.23,-3.13l-19.18 11.44 20.85 -3.86 5.3 43.58 3.83 -43.58 21.31 3.4 -19.65 -10.98c-1.41,1.9 -3.68,3.13 -6.23,3.13z"/>
    <path class="fil2" d="M61.68 0c-3.64,0 -6.6,2.95 -6.6,6.6 0,3.65 2.96,6.6 6.6,6.6 3.65,0 6.6,-2.95 6.6,-6.6 0,-3.65 -2.95,-6.6 -6.6,-6.6z"/>
    <path class="fil3" d="M62.42 62.42l31.66 39.7 -21.74 12.03 26.95 -3.89c-0.42,-2.92 0.49,-5.99 2.74,-8.23 2.24,-2.25 5.32,-3.16 8.23,-2.74l3.89 -26.95 -12.03 21.75 -39.7 -31.67z"/>
    <path class="fil3" d="M103.07 103.07c-3.21,3.21 -3.21,8.41 0,11.62 3.21,3.21 8.41,3.21 11.62,0 3.21,-3.21 3.21,-8.41 0,-11.62 -3.21,-3.21 -8.41,-3.21 -11.62,0z"/>
    <path class="fil4" d="M62.42 62.42l-3.84 43.57 -21.31 -3.4 19.65 10.98c1.42,-1.9 3.68,-3.12 6.23,-3.12 2.55,0 4.81,1.22 6.23,3.12l19.18 -11.45 -20.84 3.87 -5.3 -43.57z"/>
    <path class="fil4" d="M63.15 111.63c-3.65,0 -6.6,2.95 -6.6,6.6 0,3.65 2.95,6.6 6.6,6.6 3.64,0 6.6,-2.95 6.6,-6.6 0,-3.65 -2.96,-6.6 -6.6,-6.6z"/>
    <path class="fil5" d="M113.57 56.92l-10.98 -19.65 3.4 21.31 -43.57 3.84 43.57 5.3 -3.86 20.84 11.44 -19.18c-1.9,-1.42 -3.12,-3.68 -3.12,-6.23 0,-2.55 1.22,-4.82 3.12,-6.23z"/>
    <path class="fil5" d="M118.23 56.55c-3.64,0 -6.6,2.95 -6.6,6.6 0,3.65 2.96,6.6 6.6,6.6 3.65,0 6.6,-2.95 6.6,-6.6 0,-3.65 -2.95,-6.6 -6.6,-6.6z"/>
    <path class="fil6" d="M22.71 94.09l-12.03 -21.75 3.89 26.95c2.91,-0.42 5.99,0.49 8.23,2.74 2.25,2.24 3.16,5.31 2.74,8.23l26.96 3.89 -21.75 -12.03 31.67 -39.7 -39.71 31.67z"/>
    <path class="fil6" d="M10.14 103.07c-3.21,3.21 -3.21,8.41 0,11.62 3.21,3.21 8.41,3.21 11.62,0 3.21,-3.21 3.21,-8.41 0,-11.62 -3.21,-3.21 -8.41,-3.21 -11.62,0z"/>
    <path class="fil7" d="M102.03 22.8c-2.25,-2.24 -3.16,-5.32 -2.74,-8.23l-26.95 -3.89 21.74 12.03 -31.66 39.71 39.7 -31.67 12.03 21.74 -3.89 -26.95c-2.91,0.42 -5.99,-0.49 -8.23,-2.74z"/>
    <path class="fil7" d="M103.07 10.14c-3.21,3.21 -3.21,8.41 0,11.62 3.21,3.21 8.41,3.21 11.62,0 3.21,-3.21 3.21,-8.41 0,-11.62 -3.21,-3.21 -8.41,-3.21 -11.62,0z"/>
   </g>
   <path class="fil8" d="M152.63 41.67l0 -17.84 5.41 0 3.2 12.16 3.16 -12.16 5.42 0 0 17.84 -3.34 0 -0.01 -14.05 -3.52 14.05 -3.47 0 -3.5 -14.05 -0.01 14.05 -3.34 0z"/>
   <path id="1" class="fil8" d="M172.61 35.04c0,-1.14 0.28,-2.24 0.84,-3.3 0.56,-1.07 1.36,-1.88 2.38,-2.44 1.03,-0.56 2.17,-0.84 3.44,-0.84 1.95,0 3.55,0.64 4.8,1.91 1.25,1.27 1.87,2.87 1.87,4.82 0,1.96 -0.63,3.58 -1.88,4.87 -1.27,1.29 -2.85,1.93 -4.77,1.93 -1.18,0 -2.31,-0.27 -3.39,-0.8 -1.07,-0.54 -1.89,-1.33 -2.45,-2.36 -0.56,-1.04 -0.84,-2.3 -0.84,-3.79zm3.52 0.19c0,1.28 0.3,2.26 0.91,2.94 0.61,0.69 1.35,1.03 2.25,1.03 0.89,0 1.63,-0.34 2.24,-1.03 0.6,-0.68 0.9,-1.67 0.9,-2.97 0,-1.27 -0.3,-2.24 -0.9,-2.92 -0.61,-0.69 -1.35,-1.03 -2.24,-1.03 -0.9,0 -1.64,0.34 -2.25,1.03 -0.61,0.68 -0.91,1.66 -0.91,2.95z"/>
   <path id="2" class="fil8" d="M188.94 28.73l11.43 0 0 12.94 -3.41 0 0 -10.17 -4.64 0 0 5.82c0,1.48 -0.17,2.52 -0.51,3.11 -0.34,0.6 -0.72,0.99 -1.13,1.18 -0.42,0.19 -1.08,0.28 -2,0.28 -0.55,0 -1.27,-0.07 -2.16,-0.21l0 -2.52c0.07,0 0.26,0.01 0.57,0.03 0.36,0.02 0.64,0.04 0.83,0.04 0.47,0 0.75,-0.16 0.86,-0.46 0.1,-0.31 0.16,-1.16 0.16,-2.55l0 -7.49z"/>
   <path id="3" class="fil8" d="M202.72 35.04c0,-1.14 0.28,-2.24 0.84,-3.3 0.56,-1.07 1.35,-1.88 2.38,-2.44 1.02,-0.56 2.17,-0.84 3.43,-0.84 1.96,0 3.56,0.64 4.81,1.91 1.25,1.27 1.87,2.87 1.87,4.82 0,1.96 -0.63,3.58 -1.89,4.87 -1.26,1.29 -2.85,1.93 -4.76,1.93 -1.19,0 -2.32,-0.27 -3.39,-0.8 -1.07,-0.54 -1.89,-1.33 -2.45,-2.36 -0.56,-1.04 -0.84,-2.3 -0.84,-3.79zm3.51 0.19c0,1.28 0.31,2.26 0.91,2.94 0.61,0.69 1.36,1.03 2.25,1.03 0.89,0 1.64,-0.34 2.24,-1.03 0.6,-0.68 0.91,-1.67 0.91,-2.97 0,-1.27 -0.31,-2.24 -0.91,-2.92 -0.6,-0.69 -1.35,-1.03 -2.24,-1.03 -0.89,0 -1.64,0.34 -2.25,1.03 -0.6,0.68 -0.91,1.66 -0.91,2.95z"/>
   <path id="4" class="fil8" d="M229.1 41.67l-9.79 0 0 3.41 -2.77 0 0 -6.2 1.4 0c0.58,-0.66 1.06,-1.67 1.44,-3.05 0.37,-1.38 0.6,-3.75 0.67,-7.1l10.44 0 0 10.15 1.4 0 0 6.2 -2.79 0 0 -3.41zm-1.99 -2.79l0.01 -7.33 -4.15 0c-0.14,3.58 -0.7,6.02 -1.7,7.33l5.84 0z"/>
   <path id="5" class="fil8" d="M234.25 28.73l3.42 0 0 5.39 3.44 0c1.35,0 2.38,0.09 3.09,0.28 0.71,0.19 1.31,0.61 1.8,1.25 0.49,0.64 0.74,1.39 0.74,2.26 0,1.25 -0.43,2.19 -1.29,2.81 -0.86,0.63 -2.15,0.95 -3.87,0.95l-7.33 0 0 -12.94zm3.42 10.74l3.19 0c0.82,0 1.43,-0.12 1.8,-0.38 0.38,-0.26 0.56,-0.68 0.56,-1.26 0,-0.62 -0.24,-1.05 -0.72,-1.28 -0.49,-0.22 -1.36,-0.34 -2.61,-0.34l-2.22 0 0 3.26zm11.01 -10.74l3.42 0 0 12.94 -3.42 0 0 -12.94z"/>
   <path id="6" class="fil8" d="M262.98 37.58l3.42 0.57c-0.44,1.25 -1.13,2.2 -2.07,2.86 -0.95,0.65 -2.13,0.98 -3.55,0.98 -2.25,0 -3.91,-0.73 -4.99,-2.2 -0.85,-1.18 -1.28,-2.67 -1.28,-4.47 0,-2.14 0.56,-3.82 1.68,-5.04 1.12,-1.21 2.53,-1.82 4.25,-1.82 1.91,0 3.43,0.64 4.54,1.91 1.11,1.27 1.64,3.22 1.59,5.84l-8.54 0c0.02,1.01 0.3,1.8 0.82,2.37 0.53,0.56 1.18,0.84 1.96,0.84 0.54,0 0.99,-0.14 1.35,-0.43 0.36,-0.29 0.64,-0.76 0.82,-1.41zm0.2 -3.46c-0.02,-1 -0.27,-1.75 -0.76,-2.27 -0.49,-0.52 -1.08,-0.77 -1.77,-0.77 -0.75,0 -1.36,0.27 -1.85,0.82 -0.48,0.54 -0.72,1.28 -0.71,2.22l5.09 0z"/>
   <path id="7" class="fil8" d="M152.5 56.57l11.49 0 0 12.94 -3.41 0 0 -10.17 -4.66 0 0 10.17 -3.42 0 0 -12.94z"/>
   <path id="8" class="fil8" d="M167.61 56.57l3.18 0 0 1.9c0.42,-0.65 0.98,-1.17 1.68,-1.57 0.71,-0.4 1.49,-0.6 2.35,-0.6 1.5,0 2.78,0.59 3.82,1.77 1.05,1.17 1.57,2.82 1.57,4.92 0,2.16 -0.52,3.84 -1.58,5.04 -1.05,1.2 -2.33,1.8 -3.84,1.8 -0.71,0 -1.36,-0.14 -1.94,-0.43 -0.58,-0.28 -1.19,-0.77 -1.83,-1.46l0 6.47 -3.41 0 0 -17.84zm3.36 6.27c0,1.46 0.29,2.53 0.86,3.23 0.58,0.69 1.28,1.04 2.1,1.04 0.79,0 1.45,-0.32 1.98,-0.96 0.53,-0.64 0.79,-1.68 0.79,-3.14 0,-1.36 -0.27,-2.37 -0.81,-3.03 -0.54,-0.66 -1.22,-0.99 -2.02,-0.99 -0.83,0 -1.53,0.32 -2.07,0.97 -0.56,0.65 -0.83,1.61 -0.83,2.88z"/>
   <path id="9" class="fil8" d="M182.13 62.88c0,-1.14 0.28,-2.24 0.84,-3.3 0.56,-1.07 1.35,-1.88 2.38,-2.44 1.02,-0.56 2.17,-0.84 3.43,-0.84 1.96,0 3.56,0.63 4.81,1.9 1.25,1.28 1.87,2.88 1.87,4.83 0,1.96 -0.63,3.58 -1.89,4.87 -1.26,1.29 -2.85,1.93 -4.76,1.93 -1.19,0 -2.32,-0.27 -3.39,-0.81 -1.07,-0.53 -1.89,-1.32 -2.45,-2.35 -0.56,-1.04 -0.84,-2.3 -0.84,-3.79zm3.51 0.18c0,1.29 0.3,2.27 0.91,2.95 0.61,0.69 1.36,1.03 2.25,1.03 0.89,0 1.64,-0.34 2.24,-1.03 0.6,-0.68 0.91,-1.67 0.91,-2.97 0,-1.27 -0.31,-2.24 -0.91,-2.92 -0.6,-0.69 -1.35,-1.03 -2.24,-1.03 -0.89,0 -1.64,0.34 -2.25,1.03 -0.61,0.68 -0.91,1.66 -0.91,2.94z"/>
   <path id="10" class="fil8" d="M205.55 51.66l3.41 0 0 6.57c0.41,-0.63 0.91,-1.11 1.48,-1.43 0.57,-0.32 1.23,-0.48 1.96,-0.48 1.39,0 2.52,0.68 3.39,2.02 0.88,1.34 1.32,2.95 1.32,4.82 0,1.87 -0.49,3.45 -1.47,4.74 -0.98,1.29 -2.15,1.93 -3.49,1.93 -0.61,0 -1.17,-0.15 -1.71,-0.46 -0.53,-0.3 -1.03,-0.75 -1.48,-1.35l0 6.39 -3.41 0 0 -6.39c-0.5,0.6 -1.02,1.05 -1.58,1.35 -0.57,0.31 -1.16,0.46 -1.79,0.46 -1.39,0 -2.54,-0.65 -3.45,-1.94 -0.9,-1.29 -1.36,-2.92 -1.36,-4.88 0,-1.93 0.52,-3.54 1.56,-4.81 1.03,-1.27 2.15,-1.9 3.36,-1.9 0.65,0 1.25,0.15 1.79,0.46 0.54,0.31 1.03,0.77 1.47,1.39l0 -6.49zm-2.28 7.26c-0.63,0 -1.18,0.38 -1.65,1.14 -0.47,0.76 -0.71,1.76 -0.71,3 0,1.26 0.22,2.26 0.66,3.02 0.44,0.76 0.98,1.13 1.64,1.13 0.66,0 1.22,-0.37 1.67,-1.13 0.46,-0.76 0.69,-1.79 0.69,-3.1 0,-1.42 -0.25,-2.46 -0.74,-3.1 -0.5,-0.64 -1.02,-0.96 -1.56,-0.96zm7.99 0.02c-0.7,0 -1.26,0.41 -1.7,1.22 -0.43,0.82 -0.65,1.84 -0.65,3.06 0,1.23 0.23,2.2 0.7,2.92 0.46,0.72 1.01,1.07 1.65,1.07 0.64,0 1.19,-0.4 1.65,-1.21 0.46,-0.81 0.69,-1.77 0.69,-2.87 0,-1.18 -0.22,-2.17 -0.63,-2.98 -0.42,-0.81 -0.99,-1.21 -1.71,-1.21z"/>
   <path id="11" class="fil8" d="M227.1 65.42l3.41 0.57c-0.43,1.25 -1.13,2.2 -2.07,2.86 -0.95,0.65 -2.13,0.98 -3.55,0.98 -2.24,0 -3.91,-0.74 -4.99,-2.21 -0.85,-1.18 -1.27,-2.66 -1.27,-4.46 0,-2.14 0.56,-3.83 1.67,-5.04 1.12,-1.21 2.54,-1.82 4.25,-1.82 1.92,0 3.43,0.63 4.55,1.9 1.1,1.28 1.64,3.22 1.59,5.85l-8.55 0c0.02,1.01 0.3,1.8 0.83,2.37 0.52,0.56 1.18,0.84 1.96,0.84 0.53,0 0.98,-0.14 1.34,-0.43 0.37,-0.29 0.64,-0.76 0.83,-1.41zm0.2 -3.46c-0.03,-1 -0.28,-1.75 -0.77,-2.27 -0.48,-0.52 -1.07,-0.77 -1.77,-0.77 -0.74,0 -1.36,0.27 -1.84,0.81 -0.49,0.55 -0.73,1.29 -0.72,2.23l5.1 0z"/>
   <path id="12" class="fil8" d="M244.42 60.41l-3.37 0.6c-0.11,-0.67 -0.37,-1.17 -0.77,-1.51 -0.4,-0.34 -0.92,-0.51 -1.56,-0.51 -0.85,0 -1.53,0.29 -2.04,0.88 -0.51,0.59 -0.76,1.58 -0.76,2.96 0,1.54 0.26,2.62 0.77,3.26 0.52,0.63 1.21,0.95 2.07,0.95 0.65,0 1.18,-0.19 1.59,-0.56 0.42,-0.37 0.71,-1 0.88,-1.91l3.36 0.57c-0.35,1.55 -1.02,2.72 -2,3.51 -0.99,0.79 -2.32,1.18 -3.98,1.18 -1.89,0 -3.4,-0.6 -4.52,-1.79 -1.12,-1.2 -1.68,-2.85 -1.68,-4.96 0,-2.14 0.56,-3.8 1.69,-5 1.12,-1.19 2.65,-1.78 4.57,-1.78 1.57,0 2.82,0.34 3.75,1.02 0.93,0.67 1.59,1.7 2,3.09z"/>
   <path id="13" class="fil8" d="M258.28 60.41l-3.37 0.6c-0.11,-0.67 -0.37,-1.17 -0.77,-1.51 -0.4,-0.34 -0.92,-0.51 -1.56,-0.51 -0.85,0 -1.53,0.29 -2.04,0.88 -0.51,0.59 -0.76,1.58 -0.76,2.96 0,1.54 0.26,2.62 0.77,3.26 0.52,0.63 1.21,0.95 2.07,0.95 0.65,0 1.18,-0.19 1.59,-0.56 0.42,-0.37 0.71,-1 0.88,-1.91l3.36 0.57c-0.35,1.55 -1.02,2.72 -2.01,3.51 -0.98,0.79 -2.31,1.18 -3.97,1.18 -1.89,0 -3.4,-0.6 -4.52,-1.79 -1.12,-1.2 -1.68,-2.85 -1.68,-4.96 0,-2.14 0.56,-3.8 1.69,-5 1.12,-1.19 2.65,-1.78 4.57,-1.78 1.57,0 2.82,0.34 3.75,1.02 0.92,0.67 1.59,1.7 2,3.09z"/>
   <path id="14" class="fil8" d="M260.77 56.57l3.29 0 0 8.13 5.26 -8.13 3.36 0 0 12.94 -3.29 0 0 -8.25 -5.33 8.25 -3.29 0 0 -12.94z"/>
   <path id="15" class="fil8" d="M275.39 62.88c0,-1.14 0.28,-2.24 0.84,-3.3 0.56,-1.07 1.35,-1.88 2.38,-2.44 1.03,-0.56 2.17,-0.84 3.43,-0.84 1.96,0 3.56,0.63 4.81,1.9 1.25,1.28 1.87,2.88 1.87,4.83 0,1.96 -0.63,3.58 -1.89,4.87 -1.26,1.29 -2.85,1.93 -4.76,1.93 -1.18,0 -2.31,-0.27 -3.39,-0.81 -1.07,-0.53 -1.89,-1.32 -2.45,-2.35 -0.56,-1.04 -0.84,-2.3 -0.84,-3.79zm3.51 0.18c0,1.29 0.31,2.27 0.91,2.95 0.61,0.69 1.36,1.03 2.26,1.03 0.88,0 1.63,-0.34 2.23,-1.03 0.61,-0.68 0.91,-1.67 0.91,-2.97 0,-1.27 -0.3,-2.24 -0.91,-2.92 -0.6,-0.69 -1.35,-1.03 -2.23,-1.03 -0.9,0 -1.65,0.34 -2.26,1.03 -0.6,0.68 -0.91,1.66 -0.91,2.94z"/>
   <path id="16" class="fil8" d="M291.26 56.57l3.41 0 0 4.74 4.94 0 0 -4.74 3.41 0 0 12.94 -3.41 0 0 -5.44 -4.94 0 0 5.44 -3.41 0 0 -12.94z"/>
   <path id="17" class="fil8" d="M309 60.56l-3.09 -0.55c0.35,-1.26 0.95,-2.2 1.8,-2.8 0.86,-0.61 2.12,-0.91 3.8,-0.91 1.53,0 2.66,0.18 3.41,0.54 0.74,0.36 1.27,0.82 1.57,1.37 0.31,0.56 0.46,1.58 0.46,3.06l-0.05 3.99c0,1.14 0.06,1.97 0.16,2.51 0.11,0.54 0.32,1.12 0.61,1.74l-3.38 0c-0.09,-0.23 -0.2,-0.56 -0.33,-1 -0.06,-0.2 -0.1,-0.34 -0.12,-0.4 -0.58,0.57 -1.21,1 -1.87,1.29 -0.67,0.28 -1.37,0.43 -2.12,0.43 -1.33,0 -2.38,-0.36 -3.14,-1.08 -0.76,-0.72 -1.15,-1.64 -1.15,-2.74 0,-0.73 0.18,-1.38 0.53,-1.95 0.35,-0.57 0.83,-1.01 1.46,-1.32 0.63,-0.3 1.54,-0.56 2.72,-0.79 1.59,-0.3 2.7,-0.58 3.32,-0.84l0 -0.35c0,-0.66 -0.16,-1.13 -0.49,-1.42 -0.33,-0.28 -0.94,-0.42 -1.84,-0.42 -0.61,0 -1.09,0.12 -1.43,0.36 -0.34,0.24 -0.62,0.67 -0.83,1.28zm4.59 2.77c-0.44,0.14 -1.13,0.32 -2.08,0.52 -0.95,0.2 -1.57,0.4 -1.86,0.59 -0.45,0.32 -0.67,0.72 -0.67,1.21 0,0.48 0.18,0.89 0.53,1.24 0.36,0.35 0.81,0.52 1.37,0.52 0.61,0 1.2,-0.2 1.76,-0.6 0.41,-0.32 0.69,-0.69 0.81,-1.14 0.09,-0.29 0.14,-0.84 0.14,-1.66l0 -0.68z"/>
   <path id="18" class="fil8" d="M321.24 56.57l11.44 0 0 12.94 -3.41 0 0 -10.17 -4.64 0 0 5.82c0,1.48 -0.17,2.51 -0.51,3.11 -0.34,0.6 -0.72,0.99 -1.14,1.18 -0.41,0.18 -1.08,0.28 -2,0.28 -0.54,0 -1.26,-0.07 -2.15,-0.22l0 -2.51c0.07,0 0.26,0.01 0.57,0.03 0.36,0.02 0.63,0.03 0.83,0.03 0.46,0 0.75,-0.15 0.85,-0.45 0.11,-0.31 0.16,-1.16 0.16,-2.55l0 -7.49z"/>
   <path id="19" class="fil8" d="M336.18 56.57l3.41 0 0 5.39 3.44 0c1.35,0 2.38,0.09 3.09,0.28 0.71,0.19 1.31,0.61 1.8,1.25 0.5,0.64 0.74,1.39 0.74,2.26 0,1.25 -0.43,2.19 -1.29,2.81 -0.86,0.63 -2.15,0.95 -3.87,0.95l-7.32 0 0 -12.94zm3.41 10.74l3.19 0c0.83,0 1.43,-0.13 1.81,-0.38 0.37,-0.26 0.56,-0.68 0.56,-1.26 0,-0.62 -0.24,-1.05 -0.73,-1.28 -0.49,-0.23 -1.35,-0.34 -2.61,-0.34l-2.22 0 0 3.26zm11.01 -10.74l3.42 0 0 12.94 -3.42 0 0 -12.94z"/>
   <path id="20" class="fil8" d="M174.4 92.59l0 -3.42 6.73 0 0 3.42 -6.73 0z"/>
   <path id="21" class="fil8" d="M184.02 84.41l11.44 0 0 12.93 -3.42 0 0 -10.16 -4.63 0 0 5.82c0,1.47 -0.17,2.51 -0.51,3.11 -0.35,0.6 -0.73,0.99 -1.14,1.18 -0.41,0.18 -1.08,0.28 -2,0.28 -0.54,0 -1.27,-0.08 -2.16,-0.22l0 -2.51c0.08,0 0.27,0.01 0.57,0.02 0.36,0.03 0.64,0.04 0.83,0.04 0.47,0 0.75,-0.15 0.86,-0.45 0.1,-0.31 0.16,-1.16 0.16,-2.55l0 -7.49z"/>
   <path id="22" class="fil8" d="M198.83 84.41l3.29 0 0 8.13 5.25 -8.13 3.37 0 0 12.93 -3.29 0 0 -8.24 -5.33 8.24 -3.29 0 0 -12.93z"/>
   <path id="23" class="fil8" d="M214.12 84.41l3.41 0 0 10.17 4.91 0 0 -10.17 3.42 0 0 10.17 1.34 0 0 6.18 -2.76 0 0 -3.42 -10.32 0 0 -12.93z"/>
   <path id="24" class="fil8" d="M237.04 93.26l3.41 0.57c-0.43,1.25 -1.13,2.2 -2.07,2.86 -0.95,0.65 -2.13,0.98 -3.55,0.98 -2.25,0 -3.91,-0.74 -4.99,-2.21 -0.85,-1.18 -1.28,-2.66 -1.28,-4.46 0,-2.14 0.57,-3.83 1.68,-5.04 1.12,-1.22 2.54,-1.82 4.25,-1.82 1.92,0 3.43,0.63 4.54,1.9 1.11,1.27 1.65,3.22 1.6,5.85l-8.55 0c0.02,1.01 0.3,1.8 0.82,2.36 0.53,0.57 1.18,0.85 1.97,0.85 0.53,0 0.98,-0.14 1.34,-0.43 0.37,-0.3 0.64,-0.76 0.83,-1.41zm0.2 -3.47c-0.03,-0.99 -0.28,-1.74 -0.77,-2.26 -0.48,-0.52 -1.07,-0.78 -1.77,-0.78 -0.74,0 -1.36,0.28 -1.85,0.82 -0.48,0.55 -0.72,1.29 -0.71,2.22l5.1 0z"/>
   <path id="25" class="fil8" d="M254.51 84.41l0 12.93 -3.41 0 0 -5.35 -0.32 0c-0.74,0 -1.28,0.09 -1.63,0.28 -0.35,0.19 -0.73,0.6 -1.15,1.21l-0.21 0.26 -2.26 3.6 -3.98 0 2.45 -3.74c0.7,-1.07 1.33,-1.68 1.9,-1.85 -0.96,-0.05 -1.74,-0.41 -2.33,-1.09 -0.6,-0.67 -0.9,-1.52 -0.9,-2.56 0,-0.84 0.2,-1.56 0.6,-2.15 0.39,-0.6 0.91,-1 1.57,-1.21 0.65,-0.22 1.63,-0.33 2.92,-0.33l6.75 0zm-3.41 2.19l-2.46 0c-0.9,0 -1.54,0.13 -1.9,0.39 -0.37,0.26 -0.55,0.68 -0.55,1.28 0,0.59 0.2,1.02 0.62,1.28 0.41,0.26 1.1,0.39 2.04,0.39l2.25 0 0 -3.34z"/>
   <path id="26" class="fil8" d="M264.96 79.5l3.61 0 0 7.6c0.8,-0.08 1.35,-0.28 1.63,-0.62 0.28,-0.33 0.72,-1.26 1.31,-2.78 0.75,-1.93 1.5,-3.13 2.25,-3.6 0.75,-0.47 1.95,-0.71 3.61,-0.71 0.08,0 0.26,0 0.52,-0.01l0 2.66 -0.51 -0.01c-0.74,0 -1.28,0.09 -1.62,0.28 -0.34,0.18 -0.61,0.46 -0.83,0.83 -0.21,0.37 -0.52,1.14 -0.93,2.31 -0.22,0.61 -0.46,1.13 -0.71,1.54 -0.26,0.42 -0.71,0.81 -1.36,1.18 0.8,0.22 1.46,0.68 1.99,1.37 0.52,0.69 1.09,1.66 1.72,2.92l2.43 4.88 -4.24 0 -2.14 -4.59c-0.03,-0.07 -0.1,-0.19 -0.21,-0.38 -0.04,-0.06 -0.19,-0.34 -0.45,-0.84 -0.45,-0.88 -0.83,-1.42 -1.12,-1.64 -0.29,-0.22 -0.74,-0.34 -1.34,-0.35l0 7.8 -3.61 0 0 -17.84z"/>
   <path id="27" class="fil8" d="M290.38 95.25l0 2.09 -3.54 0 0 -2.09c-2.85,-0.1 -4.86,-0.81 -6.04,-2.11 -1.17,-1.3 -1.76,-2.93 -1.76,-4.89 0,-2.06 0.62,-3.71 1.84,-4.95 1.23,-1.25 3.22,-1.92 5.96,-2.03l0 -1.77 3.54 0 0 1.77c2.84,0.11 4.84,0.8 6.03,2.1 1.18,1.28 1.77,2.92 1.77,4.9 0,1.96 -0.59,3.59 -1.77,4.88 -1.17,1.3 -3.18,2 -6.03,2.1zm0 -3.01c0.94,0 1.76,-0.16 2.44,-0.48 0.68,-0.31 1.16,-0.74 1.44,-1.27 0.29,-0.53 0.43,-1.32 0.43,-2.34 0,-2.58 -1.44,-3.86 -4.31,-3.86l0 7.95zm-3.54 0l0 -7.95c-1.52,0 -2.62,0.33 -3.3,1.01 -0.67,0.68 -1.01,1.7 -1.01,3.07 0,2.57 1.44,3.87 4.31,3.87z"/>
   <path id="28" class="fil8" d="M298.28 79.5l4.05 0 4.16 9.24 3.55 -9.24 3.76 0 -6.03 13.56c-0.66,1.47 -1.33,2.59 -2.01,3.36 -0.68,0.77 -1.56,1.15 -2.64,1.15 -1.06,0 -1.89,-0.07 -2.49,-0.21l0 -2.68c0.51,0.03 0.97,0.05 1.38,0.05 0.83,0 1.43,-0.16 1.79,-0.46 0.36,-0.31 0.71,-0.97 1.04,-1.98l-6.56 -12.79z"/>
   <path id="29" class="fil8" d="M152.55 97.34l0 -17.84 3.62 0 0 17.84 -3.62 0z"/>
   <path id="30" class="fil8" d="M163.61 97.34l0 -14.82 -5.28 0 0 -3.02 14.16 0 0 3.02 -5.26 0 0 14.82 -3.62 0z"/>
  </g>
 </g>
</svg>
