<?xml version="1.0" encoding="UTF-8"?>
<!DOCTYPE svg PUBLIC "-//W3C//DTD SVG 1.1//EN" "http://www.w3.org/Graphics/SVG/1.1/DTD/svg11.dtd">
<!-- Creator: CorelDRAW 2018 (64-Bit) -->
<svg xmlns="http://www.w3.org/2000/svg" xml:space="preserve" width="137px" height="75px" version="1.1" style="shape-rendering:geometricPrecision; text-rendering:geometricPrecision; image-rendering:optimizeQuality; fill-rule:evenodd; clip-rule:evenodd"
viewBox="0 0 44.99 24.79"
 xmlns:xlink="http://www.w3.org/1999/xlink">
 <defs>
  <style type="text/css">
   <![CDATA[
    .fil0 {fill:#393185}
    .fil1 {fill:black;fill-rule:nonzero}
    .fil2 {fill:#393185;fill-rule:nonzero}
   ]]>
  </style>
 </defs>
 <g id="Слой_x0020_1">
  <metadata id="CorelCorpID_0Corel-Layer"/>
  <g id="_2053098261984">
   <path class="fil0" d="M17.42 4.14l0 1.47 1.56 -1.56 1.55 1.56 0 -1.47 -1.55 -1.56 -1.56 1.56z"/>
   <path class="fil0" d="M17.42 1.56l0 1.47 1.56 -1.56 1.55 1.56 0 -1.47 -1.55 -1.56 -1.56 1.56z"/>
   <path class="fil1" d="M0 17.93l0 -17.93 2.13 0 0 6.9 9.53 0 0 -6.9 2.16 0 0 17.93 -2.16 0 0 -9 -9.53 0 0 9 -2.13 0zm18.01 0l0 -11.21 1.93 0 0 11.21 -1.93 0zm6.17 0l0 -17.93 2.13 0 0 15.9 6.78 0 0 2.03 -8.91 0zm18.75 -6.87c-0.07,-0.99 -0.39,-1.75 -0.99,-2.28 -0.59,-0.54 -1.4,-0.81 -2.43,-0.81 -0.93,0 -1.71,0.28 -2.32,0.84 -0.63,0.56 -0.99,1.31 -1.08,2.25l6.82 0 0 0zm2.06 1.55l-8.88 0 0 0.18c0,1.19 0.34,2.16 1.03,2.9 0.68,0.74 1.58,1.11 2.68,1.11 0.75,0 1.43,-0.2 2.03,-0.6 0.61,-0.41 1.14,-1.02 1.61,-1.83l1.45 0.98c-0.56,1.01 -1.28,1.77 -2.15,2.29 -0.88,0.51 -1.89,0.77 -3.04,0.77 -1.71,0 -3.09,-0.57 -4.14,-1.69 -1.05,-1.13 -1.58,-2.61 -1.58,-4.44 0,-1.75 0.52,-3.19 1.57,-4.31 1.04,-1.12 2.38,-1.68 4.03,-1.68 1.65,0 2.96,0.54 3.93,1.6 0.97,1.06 1.46,2.51 1.46,4.34l0 0.38 0 0z"/>
   <path class="fil2" d="M4.63 24.31c-0.44,0.32 -0.9,0.48 -1.38,0.48 -0.18,0 -0.34,-0.02 -0.5,-0.06 -0.15,-0.03 -0.29,-0.09 -0.41,-0.17 -0.13,-0.07 -0.25,-0.16 -0.35,-0.28 -0.11,-0.11 -0.19,-0.22 -0.24,-0.33 -0.06,-0.12 -0.1,-0.24 -0.13,-0.38 -0.03,-0.14 -0.04,-0.29 -0.04,-0.45 0,-0.37 0.07,-0.69 0.2,-0.95 0.13,-0.26 0.32,-0.46 0.57,-0.6 0.24,-0.14 0.54,-0.21 0.88,-0.21 0.35,0 0.64,0.08 0.87,0.23 0.23,0.16 0.39,0.39 0.48,0.71l-0.31 0.1c-0.17,-0.52 -0.52,-0.78 -1.06,-0.78 -0.4,0 -0.72,0.13 -0.95,0.4 -0.24,0.26 -0.36,0.62 -0.36,1.06 0,0.28 0.05,0.52 0.15,0.73 0.1,0.22 0.25,0.39 0.44,0.52 0.2,0.13 0.44,0.2 0.73,0.2 0.4,0 0.77,-0.12 1.1,-0.36l0 -0.81 -1.06 0 0 -0.28 1.37 0 0 1.23 0 0zm9.82 0.43l-0.4 0 -0.44 -0.71c-0.19,-0.29 -0.32,-0.47 -0.4,-0.56 -0.08,-0.08 -0.17,-0.15 -0.28,-0.19 -0.11,-0.05 -0.23,-0.07 -0.36,-0.07l-0.48 0 0 1.53 -0.31 0 0 -3.32 1.39 0c0.21,0 0.4,0.03 0.54,0.1 0.15,0.07 0.27,0.17 0.35,0.3 0.08,0.13 0.12,0.29 0.12,0.48 0,0.53 -0.32,0.82 -0.97,0.89 0.24,0.12 0.44,0.31 0.61,0.57l0.63 0.98 0 0zm-2.36 -3.05l0 1.25 0.88 0c0.58,0 0.88,-0.21 0.88,-0.64 0,-0.09 -0.02,-0.17 -0.05,-0.24 -0.03,-0.08 -0.08,-0.14 -0.15,-0.2 -0.07,-0.06 -0.15,-0.11 -0.26,-0.13 -0.11,-0.02 -0.25,-0.04 -0.41,-0.04l-0.89 0 0 0zm12.18 1.39c0,0.51 -0.14,0.93 -0.41,1.24 -0.28,0.32 -0.66,0.47 -1.14,0.47 -0.32,0 -0.59,-0.07 -0.82,-0.2 -0.22,-0.14 -0.4,-0.34 -0.53,-0.6 -0.13,-0.25 -0.19,-0.56 -0.19,-0.91 0,-0.52 0.14,-0.94 0.41,-1.25 0.28,-0.31 0.65,-0.47 1.13,-0.47 0.32,0 0.6,0.07 0.83,0.21 0.23,0.14 0.4,0.34 0.53,0.59 0.13,0.26 0.19,0.57 0.19,0.92l0 0zm-0.33 0c0,-0.44 -0.11,-0.79 -0.32,-1.06 -0.22,-0.27 -0.52,-0.4 -0.9,-0.4 -0.38,0 -0.68,0.13 -0.89,0.4 -0.22,0.27 -0.32,0.62 -0.32,1.06 0,0.43 0.11,0.78 0.32,1.05 0.22,0.27 0.52,0.4 0.89,0.4 0.25,0 0.46,-0.06 0.64,-0.17 0.18,-0.12 0.32,-0.29 0.42,-0.51 0.11,-0.22 0.16,-0.48 0.16,-0.77l0 0zm7.42 -1.66l0.32 0 0 2.12c0,0.66 0.32,0.99 0.96,0.99 0.63,0 0.94,-0.33 0.94,-0.98l0 -2.13 0.32 0 0 2.1c0,0.85 -0.42,1.27 -1.26,1.27 -0.85,0 -1.28,-0.42 -1.28,-1.27l0 -2.1zm10.14 1.91l0 1.41 -0.32 0 0 -3.32 1.16 0c0.33,0 0.59,0.08 0.78,0.24 0.19,0.17 0.28,0.4 0.28,0.71 0,0.13 -0.02,0.26 -0.07,0.38 -0.04,0.12 -0.11,0.22 -0.2,0.31 -0.08,0.09 -0.2,0.16 -0.34,0.2 -0.14,0.05 -0.29,0.07 -0.45,0.07l-0.84 0 0 0zm0 -1.63l0 1.36 0.75 0c0.55,0 0.83,-0.23 0.83,-0.68 0,-0.45 -0.28,-0.68 -0.83,-0.68l-0.75 0z"/>
  </g>
 </g>
</svg>
